<?xml version="1.0" standalone="no"?>
<!DOCTYPE svg PUBLIC "-//W3C//DTD SVG 20010904//EN"
 "http://www.w3.org/TR/2001/REC-SVG-20010904/DTD/svg10.dtd">
<svg version="1.0" xmlns="http://www.w3.org/2000/svg"
 width="32.000000pt" height="32.000000pt" viewBox="0 0 32.000000 32.000000"
 preserveAspectRatio="xMidYMid meet">

<g transform="translate(0.000000,32.000000) scale(0.100000,-0.100000)"
fill="#000000" stroke="none">
<path d="M95 306 c-101 -44 -125 -178 -46 -257 65 -65 157 -65 222 0 124 124
-15 327 -176 257z m105 -71 c0 -8 -7 -15 -15 -15 -8 0 -15 -7 -15 -15 0 -8 7
-15 15 -15 8 0 15 -5 15 -10 0 -6 -7 -13 -15 -16 -10 -4 -15 -20 -15 -50 0
-37 -3 -44 -20 -44 -17 0 -20 7 -20 45 0 25 -4 45 -10 45 -5 0 -10 7 -10 15 0
8 5 15 10 15 6 0 10 8 10 18 0 10 5 23 12 30 17 17 58 15 58 -3z"/>
</g>
</svg>
